# xmcd CD database file
#
# Track frame offsets:
#	150
#	12755
#	23966
#	34780
#	46464
#	59434
#	68981
#	80571
#	93148
#	100612
#	112923
#	124518
#
# Disc length: 1815 seconds
#
# Revision: 0
# Processed by: cddbd v1.4PL0 Copyright (c) Steve Scherf et al.
# Submitted via: CDex 1.50
#
DISCID=8e07150c
DTITLE=MIKE LAURE - COLECCION DE ORO DISCO 2
DYEAR=2002
DGENRE=Salsa
TTITLE0=CERO 39
TTITLE1=EL MOCHILON
TTITLE2=TAMPICO
TTITLE3=VERACRUZ
TTITLE4=LOS BORRACHOS SON USTEDES
TTITLE5=FUISTE A ACAPULCO
TTITLE6=HUMANIDAD
TTITLE7=LA SECRETARIA
TTITLE8=QUIERO AMANECER
TTITLE9=LA COLEGIALA
TTITLE10=EL CAIMAN
TTITLE11=HOJA SECA
EXTD=YEAR: 2002
EXTT0=
EXTT1=
EXTT2=
EXTT3=
EXTT4=
EXTT5=
EXTT6=
EXTT7=
EXTT8=
EXTT9=
EXTT10=
EXTT11=
PLAYORDER=
